<svg width="512" height="512" viewBox="0 0 512 512" fill="none" xmlns="http://www.w3.org/2000/svg">
  <defs>
    <linearGradient id="purpleGrad" x1="0" y1="0" x2="512" y2="512" gradientUnits="userSpaceOnUse">
      <stop offset="0" stop-color="#8B5CF6"/>
      <stop offset="1" stop-color="#5B21B6"/>
    </linearGradient>
  </defs>
  <rect width="512" height="512" rx="115" fill="url(#purpleGrad)"/>
  <path d="M256 120C190 120 160 170 160 230C160 290 200 350 256 350C312 350 352 290 352 230C352 170 322 120 256 120Z" fill="white" opacity="0.3"/>
  <path d="M256 140C210 140 180 180 180 230C180 280 210 320 256 320C302 320 332 280 332 230C332 180 302 140 256 140Z" stroke="white" stroke-width="20"/>
  <rect x="120" y="220" width="272" height="10" rx="5" fill="#A78BFA" opacity="0.8"/>
  <rect x="120" y="240" width="272" height="2" fill="white"/>
</svg>
