<svg width="512" height="512" viewBox="0 0 512 512" fill="none" xmlns="http://www.w3.org/2000/svg">
  <rect width="512" height="512" rx="112" fill="#6366F1"/>
  <rect x="128" y="96" width="256" height="320" rx="20" fill="white" fill-opacity="0.2"/>
  <path d="M128 116C128 104.954 136.954 96 148 96H364C375.046 96 384 104.954 384 116V396C384 407.046 375.046 416 364 416H148C136.954 416 128 407.046 128 396V116Z" fill="#4F46E5"/>
  <rect x="160" y="144" width="192" height="24" rx="4" fill="white" fill-opacity="0.3"/>
  <rect x="160" y="184" width="128" height="16" rx="4" fill="white" fill-opacity="0.3"/>
  <circle cx="256" cy="288" r="48" stroke="white" stroke-width="8" stroke-opacity="0.5"/>
  <path d="M224 288C224 270.327 238.327 256 256 256C273.673 256 288 270.327 288 288H224Z" fill="white" fill-opacity="0.5"/>
  <circle cx="360" cy="360" r="80" fill="white"/>
  <circle cx="360" cy="360" r="64" fill="#10B981"/>
  <path d="M328 360L349.333 381.333L392 338.667" stroke="white" stroke-width="12" stroke-linecap="round" stroke-linejoin="round"/>
</svg>
